<?xml version="1.0" encoding="utf-8"?>
<!-- Generator: Adobe Illustrator 27.1.1, SVG Export Plug-In . SVG Version: 6.00 Build 0)  -->
<svg version="1.1" id="Capa_1" xmlns="http://www.w3.org/2000/svg" xmlns:xlink="http://www.w3.org/1999/xlink" x="0px" y="0px"
	 viewBox="0 0 300 300" style="enable-background:new 0 0 300 300;" xml:space="preserve" width="500px" height="500px">
<style type="text/css">
	.st0{clip-path:url(#SVGID_00000119798975840456652640000010606633919500168106_);}
	.st1{fill:#232323;}
	.st2{fill:#DCDCDC;}
	.st3{fill:#3A3A3A;}
	.st4{fill:#DCDCDC;}
	.st5{opacity:0.44;fill:#080808;enable-background:new    ;}
	.st6{fill:#B8B8B8;}
	.st7{fill:#141414;}
	.st8{fill:#3A3A3A;}
</style>
<g>
	<defs>
		<circle id="SVGID_1_" cx="148.7" cy="153.3" r="133.9"/>
	</defs>
	<clipPath id="SVGID_00000039819594623196914780000013780350666897183385_">
		<use xlink:href="#SVGID_1_"  style="overflow:visible;"/>
	</clipPath>
	<g style="clip-path:url(#SVGID_00000039819594623196914780000013780350666897183385_);">
		<g>
			<path class="st1" d="M119.3,175.9c-1.3,4.7-5.4,8.1-10.2,8.6c-6.6,0.7-17,2.3-21.9,5.8c0,0-3.8,0.8-8.9,15.4
				c-5.1,14.6-7.7,22.9-8.3,26.7c-0.6,3.8-4.1,27.7-3.9,29.5c0.2,1.8,7.5,5.5,7.5,5.5s19,10.7,44.4,15.1c25.4,4.4,63.2,1,63.2,1
				s35.2-6.3,48.9-13.9c0,0,2.3,0.7,1.4-6.3c-0.9-7.1-3.7-28.5-8.9-48.2c-5.2-19.7-9.1-23.5-18.7-26.2c-4.2-1.2-8.2-2-11.5-2.6
				c-5.6-1.1-10.7-4-14.3-8.4c-0.4-0.4-0.6-0.8-0.8-1.1c-1.3-2.2-1.8-13.9-1.8-13.9l-53.8-2.5C121.6,160.3,121.1,169.7,119.3,175.9z
				"/>
			<path class="st2" d="M118.4,159c0,0,11,9,21.9,14.9c0,0,3.5,2.6,6.6,2.6c3.1,0,11.4-4.1,11.4-4.1l17.3-9.7l8.8-14.2l2.3-38.1
				l-11.2-40.4l-8.8-16.2l-19-3.4l-24.6,6.4l-15,17.3l-5.6,38.2l6.9,39.9L118.4,159z"/>
			<path class="st3" d="M117.3,180.3c0,0,5.1,8.5,27.1,10.7c22.1,2.2,29.5-11.4,29.5-11.4l1.9-3l4.4,7.4l2.2,7.1l-0.6,11.2l-6.4,19
				l-9.4,18l-7.5,12.9l-2.8,25.1l-0.6,6.9H144l-2.2-23.7l-11.4-25.4l-7.7-13.3l-6.3-21.6l-1.5-15.2l0.1-4.3L117.3,180.3z"/>
			<g>
				<path class="st4" d="M182.1,189.6c0,0,1.4,11.1-6.5,25.9c0,0-10.8,24.2-20.4,34.1c-0.4,0.5-0.7,1.1-0.7,1.7l-2.1,32.2l4.7,0.1
					l2.3-18.3c0,0,2.7-15.8,8.2-24.3c5.4-8.5,12.7-25.9,12.7-25.9l1.6-5.2c0,0,1.5-14.5,0.7-18.1L182.1,189.6L182.1,189.6z"/>
			</g>
			<g>
				<path class="st4" d="M116.3,182.1C116.3,182.1,116.2,182.1,116.3,182.1c-0.4,0-2.8,1.3-2.8,1.3s0.3,21.1,6.3,34.8
					c6,13.7,13.4,27.2,13.4,27.2s5.4,10,7.7,31.1l0.6,7.1l5.3-0.1c0,0-2.3-28.4-3.2-33c-0.4-1.9-19.7-28.5-22.9-41.2
					c-3.2-12.7-3.4-22.8-3.5-23.5C116.8,185.1,116.7,182.1,116.3,182.1L116.3,182.1z"/>
			</g>
			<path class="st5" d="M91.3,273.8c0,0,9.7,0,6.2-17.7c-0.1-0.4-6.3-14.2-6.4-25.8c-0.1-11.6-2.8-28.6-2.8-28.6s-3.3-13.2-7.2-3.1
				c-3.5,9-5.5,15.5-5.5,15.5s-4,6.9-6.4,22.5c-2.4,15.7-3.4,23.5-3.2,25.2C66.1,263.6,91.3,273.8,91.3,273.8z"/>
			<path class="st6" d="M73.1,217.6c0.2-0.6,0.7-1.1,1.3-1.4c1-0.4,2.5-0.2,2.9,4.6c0.6,7.5,0.7,19.1-1.3,24.1
				c-1.4,3.3-2.8,5.9-3.6,7.2c-0.4,0.7-1.2,1.2-2.1,1.2c-1.4,0-3.3-0.5-3.6-3.6C66.4,245,70.9,223.2,73.1,217.6z"/>
			<path class="st5" d="M199.9,279.4c0,0,26.8-6.6,30.8-10.9c0,0,4,0.5-8.1-52.9c-2.8-12.3-6.9-19.2-10.1-22.4c0,0-2.1,0.6-2.8,9.5
				c-0.6,8.9-1.2,31-2.7,35.6c-1.5,4.6-6.2,23.6-8.3,27.1c-2.1,3.5,1.1,14.1,1.1,14.1"/>
			<path class="st6" d="M219.9,221.2c0,0,0.9-8.9,4.2-4.6c3.2,4.4,7,35,6,36.8c-1.1,1.9-2.8,0-2.8,0S220.6,246.1,219.9,221.2z"/>
			<path class="st7" d="M124,180.4c0,0-0.8-4.8-1.2-5.6c-3.1-7.6-5.8-16.5-6.8-27.5c-1.4-16.3-1.4-47.5,1.4-54.3
				c2.9-6.8,7.7-32.3,25.1-38.2s27.8,18.7,27.8,18.7s10.5,26.5,8.7,55.7s-4.4,38.2-4.4,38.2s-14.1,41-14.2,51.3c0,0,0,0,0,0.1
				l1,10.4l0,0c0-0.4-0.8-29.2,14-44.6c0.1-0.3,5.9-10,6.9-13c0.4-1.2,0.9-3.5,1-5.5c0-0.2,0.5-1.8,0.5-1.8s0.4,0.4,0.7,2
				c0.4,2.2,0.9,5.3,0.9,5.3s0.6,9.2,0.7,15.1c0.1,5.8-0.1,21.6-0.1,21.6s3,0.5-0.9,12.5l0,0c0,0,5.8-2.4,7.6-30.4l0.9-8.9
				c0.3-3.2,0.8-6.4,1.6-9.5c0.3-1.2,0.6-2.9,0.8-5.3c0.5-6,1.2-26.6,1.8-30.6c0-0.1,0-0.3,0.1-0.4c0.6-2.6,0.1,12.1,12.5,26.8l0,0
				c0,0-6.5-14.5-6.4-21.4c0.1-7,2-19.4,2-19.4s0.3-5.6,0.1-7.6c-0.2-2,6.4,7,6.6,20.5c0.2,13.6,0,34,0,34s0.2,8.2,8,16.7
				c0,0-7-6.2-5.4-22.7c1.6-16.5,2.5-30.8,2.3-32.3s-3-26.1-10.1-37.5l0,0L206,81.3l0,0c0,0-5.8-23.8-19.8-32.3
				c-13.2-8.1-20.3-7.6-21.6-7.5c-0.1,0-1.9-0.4-6,0.7c-1.3,0.3-5,1.9-5,1.9s-1.6,1.3-7.3-1.8c-5.7-3-18.5,1.3-18.5,1.3
				S116.1,49,107,62.3c-8.7,12.9-13.9,28.9-15.2,39.4c-0.6,4.7,0,19,0,19c0,0.1,0,0.2,0,0.3c-0.6,1.8-6.8,21.6-4.9,44.5
				c0,0,0.5,12.5,5.9,21.3c0,0-4.3-20.4-2.5-30.8c1.4-8.3,3.3-15.5,4.8-18.9c0.3-0.7,0.9-2.9,1.5,0.1c0.8,4.7,3.3,16.2,5,25.4
				c1,5.5,1.6,10.4,1.8,11.7c0.7,5.2,2.2,7.8,2.5,8.2l1.5,3.2c0.3,0.6,0.7,3.6,0.7,3.6s-0.6-11.2-0.2-12.1c1.8-4.1,3.1-5.1,2.6-7.1
				c-0.5-1.9-0.8-4-0.8-4s0.6-1.3,1.5,1.3c0.8,2.5,1.6,9.7,1.4,17c0,0,0.3,10.5,0.3,10.5c0.1,0.8,2.3-9.2,2.3-9.2s1.2-5.8,1.2-5.8
				l-0.2-4.4c-0.1-0.8-0.3-2.4-0.3-2.4s1.2,1.2,4.1,2.6C121.3,176.1,124,180.4,124,180.4z"/>
		</g>
	</g>
	<g style="clip-path:url(#SVGID_00000039819594623196914780000013780350666897183385_);">
		<path class="st4" d="M148.7,23.4c34.7,0,67.3,13.5,91.9,38.1c24.5,24.5,38.1,57.2,38.1,91.9s-13.5,67.3-38.1,91.9
			c-24.5,24.5-57.2,38.1-91.9,38.1s-67.3-13.5-91.9-38.1c-24.5-24.5-38.1-57.2-38.1-91.9s13.5-67.3,38.1-91.9
			C81.4,36.9,114,23.4,148.7,23.4 M148.7,19.4c-74,0-133.9,60-133.9,133.9s60,133.9,133.9,133.9s133.9-60,133.9-133.9
			S222.7,19.4,148.7,19.4L148.7,19.4z"/>
	</g>
</g>
<polygon class="st4" points="157.4,252.8 159.6,249.5 160.5,251.8 158.8,255.9 "/>
<path class="st4" d="M137.8,248.7l2.5,0.9c0,0,0.7,5.1,0.6,5.2c-0.1,0.1-1.8-3.4-1.8-3.4L137.8,248.7"/>
<ellipse transform="matrix(0.1844 -0.9829 0.9829 0.1844 -174.1315 260.3995)" class="st8" cx="69.8" cy="235.1" rx="10.2" ry="2.1"/>
<ellipse transform="matrix(0.9829 -0.1844 0.1844 0.9829 -39.3118 46.0025)" class="st8" cx="227.7" cy="234.4" rx="2.1" ry="10.2"/>
</svg>
